<svg width="281" height="80" viewBox="0 0 281 80" fill="none" xmlns="http://www.w3.org/2000/svg">
<path d="M123.429 51.5083C124.183 51.5083 124.905 51.428 125.595 51.2676C126.284 51.0912 126.894 50.8265 127.423 50.4735C127.953 50.1206 128.378 49.6715 128.699 49.126C129.02 48.5806 129.18 47.9309 129.18 47.1769C129.18 46.2786 128.955 45.5166 128.506 44.891C128.057 44.2653 127.455 43.7199 126.701 43.2547C125.964 42.7734 125.121 42.3403 124.175 41.9553C123.228 41.5542 122.258 41.1452 121.263 40.7281C120.285 40.2949 119.322 39.8217 118.376 39.3084C117.445 38.779 116.603 38.1453 115.849 37.4074C115.111 36.6695 114.518 35.7952 114.068 34.7845C113.619 33.7579 113.395 32.5387 113.395 31.127C113.395 29.5067 113.708 28.0469 114.333 26.7475C114.959 25.4321 115.849 24.3172 117.004 23.4028C118.159 22.4884 119.547 21.7826 121.167 21.2853C122.803 20.788 124.624 20.5393 126.629 20.5393C127.175 20.5393 127.808 20.5634 128.53 20.6115C129.268 20.6436 130.054 20.7077 130.888 20.804C131.723 20.9002 132.581 21.0286 133.463 21.189C134.345 21.3494 135.212 21.5499 136.062 21.7906L134.835 27.4454L134.402 27.6379C133.648 27.301 132.894 27.0202 132.14 26.7957C131.402 26.555 130.68 26.3625 129.974 26.2181C129.284 26.0577 128.635 25.9454 128.025 25.8813C127.415 25.8171 126.878 25.785 126.413 25.785C124.873 25.785 123.637 26.1139 122.707 26.7716C121.793 27.4293 121.335 28.3918 121.335 29.6591C121.335 30.5575 121.56 31.3195 122.009 31.9451C122.458 32.5547 123.052 33.1001 123.79 33.5814C124.544 34.0627 125.394 34.5038 126.341 34.9049C127.287 35.2899 128.25 35.6989 129.228 36.1321C130.223 36.5652 131.193 37.0384 132.14 37.5518C133.086 38.0651 133.928 38.6907 134.666 39.4287C135.42 40.1666 136.022 41.0409 136.471 42.0515C136.92 43.0461 137.145 44.2413 137.145 45.6369C137.145 47.2732 136.824 48.7731 136.182 50.1367C135.541 51.4842 134.618 52.6552 133.415 53.6498C132.228 54.6284 130.784 55.3904 129.084 55.9358C127.399 56.4813 125.498 56.754 123.381 56.754C122.595 56.754 121.745 56.7058 120.83 56.6096C119.916 56.5294 118.969 56.401 117.991 56.2246C117.028 56.0481 116.05 55.8155 115.055 55.5268C114.06 55.238 113.098 54.8851 112.167 54.468L113.419 48.7891L113.9 48.5485C114.814 48.9816 115.689 49.3827 116.523 49.7517C117.357 50.1206 118.159 50.4334 118.929 50.6901C119.715 50.9468 120.477 51.1473 121.215 51.2917C121.953 51.4361 122.691 51.5083 123.429 51.5083ZM152.208 56.2727H143.714V21.0206H156.371C158.697 21.0206 160.758 21.2853 162.555 21.8146C164.352 22.328 165.86 23.0739 167.079 24.0525C168.314 25.031 169.245 26.2101 169.87 27.5897C170.496 28.9693 170.809 30.5254 170.809 32.2579C170.809 34.1348 170.464 35.8353 169.774 37.3593C169.1 38.8833 168.178 40.1826 167.007 41.2575C165.836 42.3162 164.464 43.1344 162.892 43.7119C161.336 44.2894 159.676 44.5781 157.911 44.5781C157.654 44.5781 157.406 44.5701 157.165 44.5541C156.924 44.538 156.644 44.5059 156.323 44.4578L156.732 39.6452C156.86 39.6773 157.021 39.7014 157.213 39.7174C157.406 39.7174 157.582 39.7174 157.743 39.7174C158.545 39.7174 159.243 39.549 159.836 39.2121C160.446 38.8592 160.943 38.386 161.328 37.7924C161.729 37.1988 162.026 36.509 162.218 35.723C162.427 34.9369 162.531 34.0947 162.531 33.1964C162.531 31.9451 162.371 30.8863 162.05 30.0201C161.745 29.1378 161.296 28.4239 160.702 27.8785C160.125 27.317 159.419 26.9079 158.585 26.6513C157.767 26.3946 156.844 26.2663 155.818 26.2663H152.208V56.2727ZM192.802 48.1154H180.819L178.533 56.2727H171.434L182.648 21.0206H192.898L204.088 56.2727H195.112L192.802 48.1154ZM191.479 43.2306L188.23 31.6323L187.027 26.3385H186.546L185.367 31.6323L182.118 43.2306H191.479ZM218.189 43.2306V56.2727H209.694V21.0206H222.351C224.645 21.0206 226.643 21.2692 228.343 21.7665C230.044 22.2638 231.455 22.9376 232.578 23.7878C233.717 24.622 234.567 25.5925 235.129 26.6994C235.69 27.8063 235.971 28.9693 235.971 30.1885C235.971 31.2954 235.763 32.3462 235.345 33.3408C234.928 34.3193 234.391 35.2257 233.733 36.0599C233.076 36.878 232.338 37.632 231.519 38.3218C230.717 38.9955 229.931 39.5891 229.161 40.1024L239.027 56.2727H229.161L222.664 43.2306H218.189ZM218.189 38.3458H224.277C224.726 38.1052 225.151 37.7844 225.552 37.3833C225.969 36.9823 226.33 36.5251 226.635 36.0117C226.956 35.4824 227.212 34.8968 227.405 34.2552C227.597 33.6135 227.693 32.9157 227.693 32.1617C227.693 31.3275 227.565 30.5495 227.308 29.8276C227.052 29.1057 226.667 28.4801 226.153 27.9507C225.64 27.4213 225.006 27.0122 224.252 26.7235C223.498 26.4187 222.616 26.2663 221.606 26.2663H218.189V38.3458ZM253.08 56.2727H244.586V21.0206H253.08V56.2727ZM267.397 56.2727L255.221 38.4662L268.552 21.0206H276.589L263.379 36.5893L277.696 56.2727H267.397Z" fill="#39465B"/>
<g filter="url(#filter0_b_4_13432)">
<rect width="80" height="80" rx="14.5455" fill="#506582" fill-opacity="0.22"/>
</g>
<g clip-path="url(#clip0_4_13432)">
<path d="M45.8165 52.5456C45.8165 53.6991 45.5198 54.7822 45.0004 55.7182L44.9716 55.7604L43.5897 57.4586C43.5897 57.4586 43.5885 57.4611 43.5872 57.4611L34.7966 68.2679C34.6214 68.484 34.2809 68.3101 34.3448 68.0364L36.6291 58.277L39.4754 46.1058H39.5117C42.9939 46.1058 45.8165 48.9894 45.8165 52.5469V52.5456Z" fill="url(#paint0_linear_4_13432)"/>
<path d="M60.7228 35.436C61.0345 35.436 61.2047 35.8068 61.0057 36.0511L52.8835 46.0356L45.0267 55.6914C45.0267 55.6914 45.0142 55.6914 45.0179 55.685C45.5261 54.7567 45.8165 53.6851 45.8165 52.5444C45.8165 48.9869 42.9939 46.1033 39.5118 46.1033H39.4755L39.493 46.0343H20.7315C20.4198 46.0343 20.2496 45.6635 20.4486 45.4192L28.572 35.436L36.0646 26.2264C36.0646 26.2264 36.0771 26.2264 36.0734 26.2328C35.6866 27.064 35.4688 27.9924 35.4663 28.9732C35.4538 32.5575 38.374 35.4373 41.8824 35.4373H60.7228V35.436Z" fill="url(#paint1_linear_4_13432)"/>
<path d="M46.6727 13.1883C46.8479 12.9722 47.1884 13.1461 47.1245 13.4197L44.8014 23.3467L42.0202 35.2339C41.9926 35.3516 41.8912 35.4373 41.7723 35.4373C41.7723 35.4373 41.7711 35.4373 41.7698 35.4373C38.2876 35.4373 35.4651 32.5537 35.4651 28.9962C35.4651 28.0026 35.6854 27.0614 36.0784 26.2213L36.1147 26.1625L38.0273 23.8134L38.0285 23.8121L46.6727 13.1883Z" fill="url(#paint2_linear_4_13432)"/>
</g>
<defs>
<filter id="filter0_b_4_13432" x="-5.81818" y="-5.81818" width="91.6364" height="91.6364" filterUnits="userSpaceOnUse" color-interpolation-filters="sRGB">
<feFlood flood-opacity="0" result="BackgroundImageFix"/>
<feGaussianBlur in="BackgroundImageFix" stdDeviation="2.90909"/>
<feComposite in2="SourceAlpha" operator="in" result="effect1_backgroundBlur_4_13432"/>
<feBlend mode="normal" in="SourceGraphic" in2="effect1_backgroundBlur_4_13432" result="shape"/>
</filter>
<linearGradient id="paint0_linear_4_13432" x1="44.6499" y1="46.8091" x2="32.5776" y2="66.4798" gradientUnits="userSpaceOnUse">
<stop stop-color="#2C3646"/>
<stop offset="1" stop-color="#506582"/>
</linearGradient>
<linearGradient id="paint1_linear_4_13432" x1="17.2418" y1="49.3501" x2="41.4097" y2="41.0133" gradientUnits="userSpaceOnUse">
<stop stop-color="#2C3646"/>
<stop offset="1" stop-color="#506582"/>
</linearGradient>
<linearGradient id="paint2_linear_4_13432" x1="35.2999" y1="37.3349" x2="47.7511" y2="16.3493" gradientUnits="userSpaceOnUse">
<stop stop-color="#2C3646"/>
<stop offset="1" stop-color="#506582"/>
</linearGradient>
<clipPath id="clip0_4_13432">
<rect width="40.7273" height="55.2727" fill="white" transform="translate(20.3635 13.0909)"/>
</clipPath>
</defs>
</svg>
